<?xml version="1.0" encoding="iso-8859-1"?>
<!-- Generator: Adobe Illustrator 19.0.0, SVG Export Plug-In . SVG Version: 6.00 Build 0)  -->
<svg version="1.1" id="Capa_1" xmlns="http://www.w3.org/2000/svg" xmlns:xlink="http://www.w3.org/1999/xlink" x="0px" y="0px"
	 viewBox="0 0 463 463" style="enable-background:new 0 0 463 463;" xml:space="preserve">
<g>
	<path d="M383.5,144H367v-17h0.5c8.547,0,15.5-6.953,15.5-15.5v-48c0-8.547-6.953-15.5-15.5-15.5h-49.734
		c-3.138-9.29-11.93-16-22.266-16C282.542,32,272,42.542,272,55.5c0,10.336,6.71,19.128,16,22.266V111.5
		c0,8.547,6.953,15.5,15.5,15.5h0.5v17h-84.486l-9.023-13.536C206.121,123.912,198.812,120,190.938,120h-54.875
		c-7.874,0-15.184,3.912-19.553,10.465L107.486,144H87V45.766c9.29-3.138,16-11.93,16-22.266C103,10.542,92.458,0,79.5,0
		S56,10.542,56,23.5c0,10.336,6.71,19.128,16,22.266v99.144c-13.759,3.374-24,15.806-24,30.591v56c0,17.369,14.131,31.5,31.5,31.5
		h28.893l41.117,41.117c4.439,4.439,10.341,6.883,16.617,6.883H176v8.5c0,8.36,4.391,15.709,10.985,19.875l-35.734,45.944
		c-2.428-0.851-5.035-1.319-7.75-1.319H127v-8.5c0-12.958-10.542-23.5-23.5-23.5h-16C74.542,352,64,362.542,64,375.5v64
		c0,12.958,10.542,23.5,23.5,23.5h16c12.958,0,23.5-10.542,23.5-23.5V431h16.5c12.958,0,23.5-10.542,23.5-23.5
		c0-4.79-1.443-9.247-3.914-12.966L203.168,343h56.664l40.082,51.534c-2.47,3.719-3.914,8.177-3.914,12.966
		c0,12.958,10.542,23.5,23.5,23.5H336v8.5c0,12.958,10.542,23.5,23.5,23.5h16c12.958,0,23.5-10.542,23.5-23.5v-64
		c0-12.958-10.542-23.5-23.5-23.5h-16c-12.958,0-23.5,10.542-23.5,23.5v8.5h-16.5c-2.715,0-5.322,0.468-7.75,1.319l-35.734-45.944
		C282.609,335.209,287,327.86,287,319.5V311h9.873c6.276,0,12.178-2.444,16.617-6.883L354.607,263H383.5
		c17.369,0,31.5-14.131,31.5-31.5v-56C415,158.131,400.869,144,383.5,144z M295.5,47c4.687,0,8.5,3.813,8.5,8.5s-3.813,8.5-8.5,8.5
		s-8.5-3.813-8.5-8.5S290.813,47,295.5,47z M303,111.5V77.766c6.933-2.342,12.424-7.833,14.766-14.766H367.5
		c0.275,0,0.5,0.224,0.5,0.5v48c0,0.276-0.225,0.5-0.5,0.5h-64C303.225,112,303,111.776,303,111.5z M319,127h33v17h-33V127z
		 M128.99,138.786c1.58-2.371,4.225-3.786,7.072-3.786h54.875c2.848,0,5.492,1.415,7.072,3.785l3.477,5.215h-75.972L128.99,138.786z
		 M79.5,15c4.687,0,8.5,3.813,8.5,8.5S84.187,32,79.5,32S71,28.187,71,23.5S74.813,15,79.5,15z M79.5,159h32.023
		c0.01,0,0.019,0,0.028,0h103.939c0.005,0,0.011,0.001,0.016,0.001c0.005,0,0.009-0.001,0.014-0.001H383.5
		c9.098,0,16.5,7.402,16.5,16.5v0.5h-16.5c-4.143,0-7.5,3.358-7.5,7.5s3.357,7.5,7.5,7.5H400v9H63v-9h16.5
		c4.143,0,7.5-3.358,7.5-7.5s-3.357-7.5-7.5-7.5H63v-0.5C63,166.402,70.402,159,79.5,159z M112,400H79v-9h33V400z M79,415h33v9H79
		V415z M87.5,367h16c4.687,0,8.5,3.813,8.5,8.5v0.5H79v-0.5C79,370.813,82.813,367,87.5,367z M103.5,448h-16
		c-4.687,0-8.5-3.813-8.5-8.5V439h33v0.5C112,444.187,108.187,448,103.5,448z M143.5,416H127v-17h16.5c4.687,0,8.5,3.813,8.5,8.5
		S148.187,416,143.5,416z M351,415h33v9h-33V415z M384,400h-33v-9h33V400z M375.5,448h-16c-4.687,0-8.5-3.813-8.5-8.5V439h33v0.5
		C384,444.187,380.187,448,375.5,448z M359.5,367h16c4.687,0,8.5,3.813,8.5,8.5v0.5h-33v-0.5C351,370.813,354.813,367,359.5,367z
		 M336,399v17h-16.5c-4.687,0-8.5-3.813-8.5-8.5s3.813-8.5,8.5-8.5H336z M272,319.5c0,4.687-3.813,8.5-8.5,8.5h-64
		c-4.687,0-8.5-3.813-8.5-8.5V311h81V319.5z M302.883,293.51c-1.605,1.605-3.739,2.49-6.01,2.49H166.127
		c-2.271,0-4.404-0.884-6.01-2.49L129.607,263h55.627c3.138,9.29,11.93,16,22.266,16s19.128-6.71,22.266-16h3.469
		c3.138,9.29,11.93,16,22.266,16s19.128-6.71,22.266-16h55.627L302.883,293.51z M199,255.5c0-4.687,3.813-8.5,8.5-8.5
		s8.5,3.813,8.5,8.5s-3.813,8.5-8.5,8.5S199,260.187,199,255.5z M247,255.49c0.005-4.682,3.816-8.49,8.5-8.49
		c4.687,0,8.5,3.813,8.5,8.5s-3.813,8.5-8.5,8.5c-4.683,0-8.494-3.808-8.5-8.49c0-0.003,0-0.007,0-0.01S247,255.494,247,255.49z
		 M383.5,248H277.766c-3.138-9.29-11.93-16-22.266-16s-19.128,6.71-22.266,16h-3.469c-3.138-9.29-11.93-16-22.266-16
		s-19.128,6.71-22.266,16H79.5c-9.098,0-16.5-7.402-16.5-16.5V215h337v16.5C400,240.598,392.598,248,383.5,248z"/>
	<path d="M319.5,103h32c4.143,0,7.5-3.358,7.5-7.5s-3.357-7.5-7.5-7.5h-32c-4.143,0-7.5,3.358-7.5,7.5S315.357,103,319.5,103z"/>
	<path d="M215.5,191h32c4.143,0,7.5-3.358,7.5-7.5s-3.357-7.5-7.5-7.5h-32c-4.143,0-7.5,3.358-7.5,7.5S211.357,191,215.5,191z"/>
	<path d="M319.5,191h32c4.143,0,7.5-3.358,7.5-7.5s-3.357-7.5-7.5-7.5h-32c-4.143,0-7.5,3.358-7.5,7.5S315.357,191,319.5,191z"/>
	<path d="M111.5,191h32c4.143,0,7.5-3.358,7.5-7.5s-3.357-7.5-7.5-7.5h-32c-4.143,0-7.5,3.358-7.5,7.5S107.357,191,111.5,191z"/>
	<path d="M279.5,191h8c4.143,0,7.5-3.358,7.5-7.5s-3.357-7.5-7.5-7.5h-8c-4.143,0-7.5,3.358-7.5,7.5S275.357,191,279.5,191z"/>
	<path d="M175.5,191h8c4.143,0,7.5-3.358,7.5-7.5s-3.357-7.5-7.5-7.5h-8c-4.143,0-7.5,3.358-7.5,7.5S171.357,191,175.5,191z"/>
</g>
<g>
</g>
<g>
</g>
<g>
</g>
<g>
</g>
<g>
</g>
<g>
</g>
<g>
</g>
<g>
</g>
<g>
</g>
<g>
</g>
<g>
</g>
<g>
</g>
<g>
</g>
<g>
</g>
<g>
</g>
</svg>
