<?xml version="1.0" encoding="iso-8859-1"?>
<!-- Generator: Adobe Illustrator 19.0.0, SVG Export Plug-In . SVG Version: 6.00 Build 0)  -->
<svg version="1.1" id="Capa_1" xmlns="http://www.w3.org/2000/svg" xmlns:xlink="http://www.w3.org/1999/xlink" x="0px" y="0px"
	 viewBox="0 0 462.962 462.962" style="enable-background:new 0 0 462.962 462.962;" xml:space="preserve">
<g>
	<path d="M231.481,135.962c-30.603,0-55.5,24.897-55.5,55.5s24.897,55.5,55.5,55.5s55.5-24.897,55.5-55.5
		S262.084,135.962,231.481,135.962z M231.481,231.962c-22.332,0-40.5-18.168-40.5-40.5s18.168-40.5,40.5-40.5s40.5,18.168,40.5,40.5
		S253.813,231.962,231.481,231.962z"/>
	<path d="M215.481,175.962c-4.143,0-7.5,3.358-7.5,7.5v16c0,4.142,3.357,7.5,7.5,7.5s7.5-3.358,7.5-7.5v-16
		C222.981,179.32,219.624,175.962,215.481,175.962z"/>
	<path d="M247.481,175.962c-4.143,0-7.5,3.358-7.5,7.5v16c0,4.142,3.357,7.5,7.5,7.5s7.5-3.358,7.5-7.5v-16
		C254.981,179.32,251.624,175.962,247.481,175.962z"/>
	<path d="M271.481,263.962h-80c-4.143,0-7.5,3.358-7.5,7.5s3.357,7.5,7.5,7.5h80c4.143,0,7.5-3.358,7.5-7.5
		S275.624,263.962,271.481,263.962z"/>
	<path d="M374.981,384.876v-33.914h16.5c2.482,0,4.804-1.229,6.201-3.281c1.396-2.053,1.687-4.663,0.775-6.972l-69.542-176.222
		l4.596-45.962c1.122-11.23-2.624-22.428-10.279-30.722L249.444,7.865C244.831,2.867,238.283,0,231.481,0s-13.35,2.867-17.962,7.865
		l-73.791,79.938c-7.654,8.294-11.4,19.492-10.278,30.722l4.596,45.962L64.505,340.709c-0.911,2.309-0.621,4.919,0.775,6.972
		c1.397,2.052,3.719,3.281,6.201,3.281h16.5v33.914c-5.418,1.319-10.551,4.09-14.774,8.312c-12.281,12.282-12.281,32.266,0,44.548
		c2.93,2.929,7.679,2.929,10.606,0c2.93-2.929,2.93-7.677,0.001-10.606c-6.434-6.434-6.434-16.901-0.001-23.335
		c6.436-6.433,16.903-6.433,23.335,0c6.434,6.434,6.434,16.901,0,23.335c-2.929,2.929-2.929,7.678,0.001,10.606
		c1.464,1.465,3.384,2.197,5.303,2.197s3.839-0.732,5.304-2.197c12.281-12.282,12.281-32.266-0.001-44.548
		c-4.223-4.223-9.356-6.993-14.773-8.312v-39.035l43.091-61.099l5.662,56.624c0.354,3.549,1.939,6.894,4.463,9.418l12.375,12.375
		l6.268,31.342c1.444,7.22,7.837,12.46,15.199,12.46h10.937l6.099,42.693c1.085,7.586,7.682,13.307,15.345,13.307h18.123
		c7.663,0,14.26-5.721,15.345-13.308l6.099-42.692h10.937c7.362,0,13.755-5.24,15.199-12.46l6.268-31.342l12.376-12.376
		c2.522-2.524,4.107-5.868,4.462-9.417l5.662-56.625l43.09,61.099v39.035c-5.418,1.319-10.551,4.09-14.774,8.312
		c-12.281,12.282-12.281,32.266,0,44.548c2.929,2.929,7.678,2.929,10.606,0c2.93-2.929,2.93-7.677,0.001-10.606
		c-6.434-6.434-6.434-16.901-0.001-23.335c6.436-6.433,16.903-6.433,23.335,0c6.434,6.434,6.434,16.901,0,23.335
		c-2.929,2.929-2.929,7.678,0.001,10.606c1.464,1.465,3.384,2.197,5.303,2.197s3.839-0.732,5.304-2.197
		c12.281-12.282,12.281-32.266-0.001-44.548C385.532,388.966,380.399,386.195,374.981,384.876z M224.542,18.039
		c1.808-1.959,4.272-3.039,6.939-3.039s5.132,1.079,6.94,3.039l73.789,79.938c1.66,1.799,3.017,3.822,4.059,5.985H146.692
		c1.042-2.164,2.398-4.186,4.058-5.985L224.542,18.039z M91.594,335.962h-9.09l54.803-138.873l6.486,64.859L91.594,335.962z
		 M189.55,391.561l-4.92-24.598h15.967l2.143,25h-12.7C189.802,391.962,189.596,391.793,189.55,391.561z M217.795,391.962l-2.143-25
		h31.659l-2.143,25H217.795z M240.543,447.962H222.42c-0.247,0-0.46-0.185-0.495-0.429l-5.796-40.571h30.705l-5.796,40.57
		C241.003,447.777,240.79,447.962,240.543,447.962z M273.413,391.56c-0.047,0.233-0.253,0.402-0.49,0.402h-12.7l2.143-25h15.967
		L273.413,391.56z M296.158,340.179l-11.784,11.784H178.588l-11.783-11.783c-0.083-0.083-0.134-0.19-0.146-0.305l-22.091-220.913
		h173.825l-22.091,220.913C296.291,339.989,296.24,340.097,296.158,340.179z M325.656,197.09l54.803,138.873h-9.09l-52.199-74.014
		L325.656,197.09z"/>
</g>
<g>
</g>
<g>
</g>
<g>
</g>
<g>
</g>
<g>
</g>
<g>
</g>
<g>
</g>
<g>
</g>
<g>
</g>
<g>
</g>
<g>
</g>
<g>
</g>
<g>
</g>
<g>
</g>
<g>
</g>
</svg>
