<?xml version="1.0" encoding="iso-8859-1"?>
<!-- Generator: Adobe Illustrator 19.0.0, SVG Export Plug-In . SVG Version: 6.00 Build 0)  -->
<svg version="1.1" id="Capa_1" xmlns="http://www.w3.org/2000/svg" xmlns:xlink="http://www.w3.org/1999/xlink" x="0px" y="0px"
	 viewBox="0 0 463 463" style="enable-background:new 0 0 463 463;" xml:space="preserve">
<path d="M406.208,244.146L399,229.73v-6.23c0-10.336-6.71-19.128-16-22.266v-43.469c9.29-3.138,16-11.93,16-22.266
	c0-12.958-10.542-23.5-23.5-23.5c-4.391,0-8.502,1.213-12.022,3.318L327,84.051V79h1.873c6.277,0,12.179-2.444,16.617-6.883
	l11.313-11.313c2.929-2.929,2.929-7.678,0-10.606c-2.929-2.929-7.678-2.929-10.606,0L334.883,61.51
	c-1.605,1.605-3.74,2.49-6.011,2.49H239v-9h20.5c15.164,0,27.5-12.336,27.5-27.5S274.664,0,259.5,0h-56
	C188.336,0,176,12.336,176,27.5S188.336,55,203.5,55H224v9h-89.873c-2.271,0-4.405-0.884-6.011-2.49l-11.313-11.313
	c-2.929-2.929-7.678-2.929-10.606,0c-2.929,2.929-2.929,7.678,0,10.606l11.313,11.313c4.438,4.439,10.34,6.883,16.617,6.883H136
	v5.051l-36.478,31.267C96.002,113.213,91.891,112,87.5,112C74.542,112,64,122.542,64,135.5c0,10.336,6.71,19.128,16,22.266v43.469
	c-9.29,3.138-16,11.93-16,22.266v6.23l-7.208,14.416C56.271,245.188,56,246.335,56,247.5v16c0,4.142,3.358,7.5,7.5,7.5
	s7.5-3.358,7.5-7.5v-14.229L76.135,239h22.729L104,249.271V263.5c0,4.142,3.358,7.5,7.5,7.5s7.5-3.358,7.5-7.5v-16
	c0-1.165-0.271-2.313-0.792-3.354L111,229.73v-6.23c0-10.336-6.71-19.128-16-22.266v-43.469c9.29-3.138,16-11.93,16-22.266
	c0-3.109-0.613-6.077-1.714-8.796L136,103.807v0.861c0,12.008,6.672,22.804,17.413,28.174L184,148.136v7.671l-20.3,15.615
	c-3.559-2.17-7.736-3.422-12.2-3.422c-12.958,0-23.5,10.542-23.5,23.5c0,10.336,6.71,19.128,16,22.266v43.469
	c-9.29,3.138-16,11.93-16,22.266v6.23l-7.208,14.416c-0.521,1.042-0.792,2.189-0.792,3.354v16c0,4.142,3.358,7.5,7.5,7.5
	s7.5-3.358,7.5-7.5v-14.229L140.135,295h22.729L168,305.271V319.5c0,4.142,3.358,7.5,7.5,7.5s7.5-3.358,7.5-7.5v-16
	c0-1.165-0.271-2.313-0.792-3.354L175,285.73v-6.23c0-10.336-6.71-19.128-16-22.266v-43.469c9.29-3.138,16-11.93,16-22.266
	c0-3.031-0.583-5.927-1.633-8.589L184,174.732v65.078c0,7.178,3.215,13.867,8.82,18.35L224,283.104v78.13
	c-9.29,3.138-16,11.93-16,22.266V416h-16.5c-12.958,0-23.5,10.542-23.5,23.5s10.542,23.5,23.5,23.5h80
	c12.958,0,23.5-10.542,23.5-23.5S284.458,416,271.5,416H255v-32.5c0-10.336-6.71-19.128-16-22.266v-78.13l31.18-24.944
	c5.605-4.483,8.82-11.172,8.82-18.35v-65.078l10.633,8.179c-1.05,2.663-1.633,5.558-1.633,8.589c0,10.336,6.71,19.128,16,22.266
	v43.469c-9.29,3.138-16,11.93-16,22.266v6.23l-7.208,14.416c-0.521,1.042-0.792,2.189-0.792,3.354v16c0,4.142,3.358,7.5,7.5,7.5
	s7.5-3.358,7.5-7.5v-14.229L300.135,295h22.729L328,305.271V319.5c0,4.142,3.358,7.5,7.5,7.5s7.5-3.358,7.5-7.5v-16
	c0-1.165-0.271-2.313-0.792-3.354L335,285.73v-6.23c0-10.336-6.71-19.128-16-22.266v-43.469c9.29-3.138,16-11.93,16-22.266
	c0-12.958-10.542-23.5-23.5-23.5c-4.464,0-8.642,1.252-12.2,3.422L279,155.807v-7.671l30.587-15.294
	c10.741-5.37,17.413-16.166,17.413-28.174v-0.861l26.714,22.898c-1.102,2.719-1.714,5.686-1.714,8.796
	c0,10.336,6.71,19.128,16,22.266v43.469c-9.29,3.138-16,11.93-16,22.266v6.23l-7.208,14.416c-0.521,1.042-0.792,2.189-0.792,3.354
	v16c0,4.142,3.358,7.5,7.5,7.5s7.5-3.358,7.5-7.5v-14.229L364.135,239h22.729L392,249.271V263.5c0,4.142,3.358,7.5,7.5,7.5
	s7.5-3.358,7.5-7.5v-16C407,246.335,406.729,245.188,406.208,244.146z M191,27.5c0-6.893,5.607-12.5,12.5-12.5h56
	c6.893,0,12.5,5.607,12.5,12.5S266.393,40,259.5,40H255v-8.5c0-4.142-3.358-7.5-7.5-7.5s-7.5,3.358-7.5,7.5V40h-17v-8.5
	c0-4.142-3.358-7.5-7.5-7.5s-7.5,3.358-7.5,7.5V40h-4.5C196.607,40,191,34.393,191,27.5z M96,224H79v-0.5c0-4.687,3.813-8.5,8.5-8.5
	s8.5,3.813,8.5,8.5V224z M87.5,144c-4.687,0-8.5-3.813-8.5-8.5s3.813-8.5,8.5-8.5s8.5,3.813,8.5,8.5S92.187,144,87.5,144z M160,280
	h-17v-0.5c0-4.687,3.813-8.5,8.5-8.5s8.5,3.813,8.5,8.5V280z M151.5,200c-4.687,0-8.5-3.813-8.5-8.5s3.813-8.5,8.5-8.5
	s8.5,3.813,8.5,8.5S156.187,200,151.5,200z M320,280h-17v-0.5c0-4.687,3.813-8.5,8.5-8.5s8.5,3.813,8.5,8.5V280z M311.5,183
	c4.687,0,8.5,3.813,8.5,8.5s-3.813,8.5-8.5,8.5s-8.5-3.813-8.5-8.5S306.813,183,311.5,183z M280,439.5c0,4.687-3.813,8.5-8.5,8.5
	h-80c-4.687,0-8.5-3.813-8.5-8.5s3.813-8.5,8.5-8.5h80C276.187,431,280,434.813,280,439.5z M240,416h-17v-32.5
	c0-4.687,3.813-8.5,8.5-8.5s8.5,3.813,8.5,8.5V416z M260.81,246.447l-29.31,23.448l-29.31-23.448
	c-2.027-1.622-3.19-4.041-3.19-6.637V151h25v24.5c0,4.142,3.358,7.5,7.5,7.5s7.5-3.358,7.5-7.5V151h25v88.81
	C264,242.406,262.837,244.825,260.81,246.447z M215,119.5c0-9.098,7.402-16.5,16.5-16.5s16.5,7.402,16.5,16.5s-7.402,16.5-16.5,16.5
	S215,128.598,215,119.5z M302.879,119.425L269.73,136h-11.412c2.965-4.802,4.681-10.454,4.681-16.5c0-17.369-14.131-31.5-31.5-31.5
	S200,102.131,200,119.5c0,6.046,1.716,11.698,4.681,16.5h-11.412l-33.148-16.575c-5.626-2.813-9.121-8.468-9.121-14.758V79h161
	v25.667C312,110.958,308.505,116.612,302.879,119.425z M375.5,127c4.687,0,8.5,3.813,8.5,8.5s-3.813,8.5-8.5,8.5s-8.5-3.813-8.5-8.5
	S370.813,127,375.5,127z M375.5,215c4.687,0,8.5,3.813,8.5,8.5v0.5h-17v-0.5C367,218.813,370.813,215,375.5,215z"/>
<g>
</g>
<g>
</g>
<g>
</g>
<g>
</g>
<g>
</g>
<g>
</g>
<g>
</g>
<g>
</g>
<g>
</g>
<g>
</g>
<g>
</g>
<g>
</g>
<g>
</g>
<g>
</g>
<g>
</g>
</svg>
